<mxfile host="app.diagrams.net" modified="2022-09-26T10:38:19.394Z" agent="5.0 (X11)" etag="cdL6rI8YZwKkk_IExrSV" version="20.3.6" type="github">
  <diagram id="C5RBs43oDa-KdzZeNtuy" name="Page-1">
    <mxGraphModel dx="1422" dy="1915" grid="1" gridSize="10" guides="1" tooltips="1" connect="1" arrows="1" fold="1" page="1" pageScale="1" pageWidth="827" pageHeight="1169" math="0" shadow="0">
      <root>
        <mxCell id="WIyWlLk6GJQsqaUBKTNV-0" />
        <mxCell id="WIyWlLk6GJQsqaUBKTNV-1" parent="WIyWlLk6GJQsqaUBKTNV-0" />
        <mxCell id="WIyWlLk6GJQsqaUBKTNV-2" value="" style="rounded=0;html=1;jettySize=auto;orthogonalLoop=1;fontSize=11;endArrow=block;endFill=0;endSize=8;strokeWidth=1;shadow=0;labelBackgroundColor=none;edgeStyle=orthogonalEdgeStyle;" parent="WIyWlLk6GJQsqaUBKTNV-1" edge="1">
          <mxGeometry relative="1" as="geometry">
            <mxPoint x="219.5" y="140" as="sourcePoint" />
            <mxPoint x="219.5" y="190" as="targetPoint" />
          </mxGeometry>
        </mxCell>
        <mxCell id="CVzuOCEtSoa9dOnsMN5J-2" value="" style="edgeStyle=orthogonalEdgeStyle;rounded=0;orthogonalLoop=1;jettySize=auto;html=1;" edge="1" parent="WIyWlLk6GJQsqaUBKTNV-1" source="CVzuOCEtSoa9dOnsMN5J-0">
          <mxGeometry relative="1" as="geometry">
            <mxPoint x="220" y="80" as="targetPoint" />
          </mxGeometry>
        </mxCell>
        <mxCell id="CVzuOCEtSoa9dOnsMN5J-0" value="&lt;br&gt;Start" style="ellipse;whiteSpace=wrap;html=1;rounded=1;glass=0;strokeWidth=1;shadow=0;" vertex="1" parent="WIyWlLk6GJQsqaUBKTNV-1">
          <mxGeometry x="160" y="-50" width="120" height="60" as="geometry" />
        </mxCell>
        <mxCell id="CVzuOCEtSoa9dOnsMN5J-3" value="int = input n" style="shape=parallelogram;perimeter=parallelogramPerimeter;whiteSpace=wrap;html=1;fixedSize=1;" vertex="1" parent="WIyWlLk6GJQsqaUBKTNV-1">
          <mxGeometry x="170" y="80" width="120" height="60" as="geometry" />
        </mxCell>
        <mxCell id="CVzuOCEtSoa9dOnsMN5J-7" value="" style="edgeStyle=orthogonalEdgeStyle;rounded=0;orthogonalLoop=1;jettySize=auto;html=1;" edge="1" parent="WIyWlLk6GJQsqaUBKTNV-1" source="CVzuOCEtSoa9dOnsMN5J-4" target="CVzuOCEtSoa9dOnsMN5J-6">
          <mxGeometry relative="1" as="geometry" />
        </mxCell>
        <mxCell id="CVzuOCEtSoa9dOnsMN5J-4" value="&lt;div&gt;Sum = 0&lt;/div&gt;&lt;div&gt;Int i =1&lt;br&gt;&lt;/div&gt;" style="rounded=0;whiteSpace=wrap;html=1;" vertex="1" parent="WIyWlLk6GJQsqaUBKTNV-1">
          <mxGeometry x="160" y="190" width="120" height="60" as="geometry" />
        </mxCell>
        <mxCell id="CVzuOCEtSoa9dOnsMN5J-9" value="yes" style="edgeStyle=orthogonalEdgeStyle;rounded=0;orthogonalLoop=1;jettySize=auto;html=1;" edge="1" parent="WIyWlLk6GJQsqaUBKTNV-1" source="CVzuOCEtSoa9dOnsMN5J-6" target="CVzuOCEtSoa9dOnsMN5J-8">
          <mxGeometry x="-0.28" y="20" relative="1" as="geometry">
            <Array as="points">
              <mxPoint x="370" y="365" />
              <mxPoint x="370" y="460" />
              <mxPoint x="230" y="460" />
            </Array>
            <mxPoint as="offset" />
          </mxGeometry>
        </mxCell>
        <mxCell id="CVzuOCEtSoa9dOnsMN5J-6" value="While ( i &amp;lt; = n )" style="rhombus;whiteSpace=wrap;html=1;rounded=0;" vertex="1" parent="WIyWlLk6GJQsqaUBKTNV-1">
          <mxGeometry x="160" y="320" width="120" height="90" as="geometry" />
        </mxCell>
        <mxCell id="CVzuOCEtSoa9dOnsMN5J-12" value="" style="edgeStyle=orthogonalEdgeStyle;rounded=0;orthogonalLoop=1;jettySize=auto;html=1;" edge="1" parent="WIyWlLk6GJQsqaUBKTNV-1" source="CVzuOCEtSoa9dOnsMN5J-8" target="CVzuOCEtSoa9dOnsMN5J-11">
          <mxGeometry relative="1" as="geometry" />
        </mxCell>
        <mxCell id="CVzuOCEtSoa9dOnsMN5J-8" value="sum = sum + ( i * i )" style="whiteSpace=wrap;html=1;rounded=0;" vertex="1" parent="WIyWlLk6GJQsqaUBKTNV-1">
          <mxGeometry x="170" y="510" width="120" height="60" as="geometry" />
        </mxCell>
        <mxCell id="CVzuOCEtSoa9dOnsMN5J-13" value="no" style="edgeStyle=orthogonalEdgeStyle;rounded=0;orthogonalLoop=1;jettySize=auto;html=1;entryX=0;entryY=0.5;entryDx=0;entryDy=0;" edge="1" parent="WIyWlLk6GJQsqaUBKTNV-1" source="CVzuOCEtSoa9dOnsMN5J-11" target="CVzuOCEtSoa9dOnsMN5J-6">
          <mxGeometry x="0.0526" y="10" relative="1" as="geometry">
            <mxPoint x="110" y="360" as="targetPoint" />
            <Array as="points">
              <mxPoint x="90" y="690" />
              <mxPoint x="90" y="365" />
            </Array>
            <mxPoint as="offset" />
          </mxGeometry>
        </mxCell>
        <mxCell id="CVzuOCEtSoa9dOnsMN5J-16" value="" style="edgeStyle=orthogonalEdgeStyle;rounded=0;orthogonalLoop=1;jettySize=auto;html=1;" edge="1" parent="WIyWlLk6GJQsqaUBKTNV-1" source="CVzuOCEtSoa9dOnsMN5J-11" target="CVzuOCEtSoa9dOnsMN5J-15">
          <mxGeometry relative="1" as="geometry" />
        </mxCell>
        <mxCell id="CVzuOCEtSoa9dOnsMN5J-11" value="i = i + 1" style="whiteSpace=wrap;html=1;rounded=0;" vertex="1" parent="WIyWlLk6GJQsqaUBKTNV-1">
          <mxGeometry x="170" y="650" width="120" height="60" as="geometry" />
        </mxCell>
        <mxCell id="CVzuOCEtSoa9dOnsMN5J-18" value="" style="edgeStyle=orthogonalEdgeStyle;rounded=0;orthogonalLoop=1;jettySize=auto;html=1;" edge="1" parent="WIyWlLk6GJQsqaUBKTNV-1" source="CVzuOCEtSoa9dOnsMN5J-15" target="CVzuOCEtSoa9dOnsMN5J-17">
          <mxGeometry relative="1" as="geometry" />
        </mxCell>
        <mxCell id="CVzuOCEtSoa9dOnsMN5J-15" value="Print Sum" style="shape=parallelogram;perimeter=parallelogramPerimeter;whiteSpace=wrap;html=1;fixedSize=1;rounded=0;" vertex="1" parent="WIyWlLk6GJQsqaUBKTNV-1">
          <mxGeometry x="170" y="790" width="120" height="60" as="geometry" />
        </mxCell>
        <mxCell id="CVzuOCEtSoa9dOnsMN5J-17" value="End" style="ellipse;whiteSpace=wrap;html=1;rounded=0;" vertex="1" parent="WIyWlLk6GJQsqaUBKTNV-1">
          <mxGeometry x="170" y="930" width="120" height="60" as="geometry" />
        </mxCell>
      </root>
    </mxGraphModel>
  </diagram>
</mxfile>
